<svg id="Layer_1" data-name="Layer 1" xmlns="http://www.w3.org/2000/svg" viewBox="0 0 654.47 866.58"><defs><style>.cls-1,.cls-2{fill:none;stroke-miterlimit:10;stroke-width:12px;}.cls-1{stroke:#73cde1;}.cls-2{stroke:#3f4449;}</style></defs><g id="Layer_2" data-name="Layer 2"><g id="Layer_1-2" data-name="Layer 1-2"><path class="cls-1" d="M499.54,392.83a9.86,9.86,0,0,0-1.9-1.51l-85-51a12.64,12.64,0,0,0-13,0l-65.79,39.53V292.69a12.52,12.52,0,0,0-6.44-11h-.13L242.8,230.8a12.64,12.64,0,0,0-13,0l-84.23,50.76a.45.45,0,0,0-.38.13c-.12,0-.12.12-.25.25a13.52,13.52,0,0,0-2.52,2,9.2,9.2,0,0,0-2,2.52,12.68,12.68,0,0,0-1.65,6.19V555.76L164,591.12V315l59.73,35.87V674.59L249,710V577.46l59.6,35.86V793.17l12.63,17.68,12.63-17.68V613.32l4-2.4,55.69-33.46V709.83l25.26-35.36V460.39l59.6-35.86V591.25l25.26-35.36V402.18A12.48,12.48,0,0,0,499.54,392.83Zm-106,139.92-59.73-35.86V424.53l59.73,35.86ZM249,350.91,308.6,315V496.89L249,532.75Zm-73.12-58.22,60.49-36.24,60.36,36.24-48.11,28.92-12.25,7.45Zm158,291.08-12.63,7.58-12.63-7.58L260.87,555.1l47.73-28.79,12.63-7.57,12.63,7.57,47.73,28.79Zm72.36-145.22-60.49-36.37,60.49-36.24,60.36,36.24Z" transform="translate(6.01 6)"/><path class="cls-2" d="M606.22,173.89C550.15,65,443.57,0,321.2,0S92.26,65,36.31,173.89s-46.85,233.37,24.5,332.87l241.45,337a11.6,11.6,0,0,0,2.15,3,24.28,24.28,0,0,0,1.77,1.89,11.74,11.74,0,0,0,3.53,2.65,3.78,3.78,0,0,0,1,.51c.38.25.76.38,1.14.63a11.4,11.4,0,0,0,2.78,1,18.35,18.35,0,0,0,6.56,1.14,19.2,19.2,0,0,0,6.07-.89,8,8,0,0,0,2.14-.76c.13,0,.13-.12.25-.12a10.23,10.23,0,0,0,2.41-1.14c.25-.12.75-.5,1-.63a6.75,6.75,0,0,0,1-.76,1,1,0,0,0,.5-.25c0-.12.13-.12.25-.12.38-.39.89-.76,1.26-1.14a.13.13,0,0,0,.13-.13h0a24.12,24.12,0,0,0,2.4-2.65,8.93,8.93,0,0,0,1.52-2.27l241.57-337C622,450.32,642.46,385.91,642.46,321,642.46,271.25,630.47,221.12,606.22,173.89ZM321.2,34.73c109.24,0,204.08,57.83,254.08,154.94,21.6,42.18,32.33,86.88,32.33,131.21,0,58-18.19,115.29-54.17,165.55l-49.76,69.46-25.26,35.35-59.6,83.22-25.26,35.36-25,34.86-14.77,20.58-20,27.91L321.2,810.85l-12.62-17.68-20-27.91-14.77-20.58L249,710l-25.25-35.36L164,591.12l-25.26-35.36L89.1,486.43C25.46,397.66,17.37,286.78,67.26,189.67S212.1,34.73,321.2,34.73Z" transform="translate(6.01 6)"/></g></g></svg>